<?xml version="1.0" encoding="UTF-8"?>
<!DOCTYPE svg PUBLIC "-//W3C//DTD SVG 1.1//EN" "http://www.w3.org/Graphics/SVG/1.1/DTD/svg11.dtd">
<!-- Creator: CorelDRAW 2017 -->
<svg xmlns="http://www.w3.org/2000/svg" xml:space="preserve" width="1002px" height="221px" version="1.1" style="shape-rendering:geometricPrecision; text-rendering:geometricPrecision; image-rendering:optimizeQuality; fill-rule:evenodd; clip-rule:evenodd"
viewBox="0 0 403 89"
 xmlns:xlink="http://www.w3.org/1999/xlink">
 <defs>
  <style type="text/css">
   <![CDATA[
    .fil0 {fill:#004288;fill-rule:nonzero}
   ]]>
  </style>
 </defs>
 <g id="Слой_x0020_1">
  <metadata id="CorelCorpID_0Corel-Layer"/>
  <path class="fil0" d="M21 10c3,-5 8,-9 13,-10 2,-1 5,0 7,0 38,0 76,0 115,0 -11,8 -23,15 -34,23 0,0 -1,1 -2,1 -22,0 -44,0 -65,0 -5,0 -9,3 -11,8 -2,10 -5,19 -7,29 0,1 0,1 -1,1 -4,2 -8,4 -12,6 6,-1 11,-2 17,-2 22,0 45,0 67,0 1,-4 3,-8 4,-13 -9,0 -18,0 -27,0 21,-7 42,-15 63,-22 -1,2 0,4 -1,5 -5,17 -9,35 -14,52 -45,0 -89,0 -134,0 5,-21 11,-42 16,-62 1,-6 3,-11 6,-16zm136 13c2,-8 4,-16 6,-23 35,0 69,0 104,0 -2,8 -4,16 -6,23 -22,0 -42,0 -64,0 -13,0 -26,0 -40,0zm111 0c2,-8 4,-16 6,-23 34,0 68,0 102,0 6,0 12,0 17,2 4,2 7,5 8,8 2,5 1,10 0,14 -4,14 -7,28 -10,42 -2,7 -6,13 -12,16 -7,4 -15,6 -23,6 -34,0 -69,0 -103,0 4,-16 8,-32 11,-49l33 -12c-3,12 -6,25 -9,37 21,0 42,0 63,0 5,0 9,-3 11,-8 3,-10 5,-20 8,-29 4,-2 8,-4 13,-6 -6,0 -12,2 -18,2 -32,0 -64,0 -96,0zm-77 18l32 -12c-5,20 -10,40 -15,60 -10,0 -20,0 -30,0 5,-20 8,-28 13,-48z"/>
 </g>
</svg>
